<svg width="373" height="54" viewBox="0 0 373 54" fill="none" xmlns="http://www.w3.org/2000/svg">
<path d="M0.908026 53V1.36363H22.2383C26.1043 1.36363 29.4408 2.0612 32.2479 3.45632C35.0717 4.83463 37.2485 6.81806 38.7781 9.4066C40.3076 11.9783 41.0724 15.0291 41.0724 18.5589C41.0724 22.1392 40.2908 25.1816 38.7276 27.6861C37.1644 30.1738 34.9457 32.0732 32.0714 33.3842C29.1971 34.6785 25.7933 35.3256 21.8601 35.3256H8.37109V25.4925H19.5405C21.4231 25.4925 22.9947 25.2488 24.2553 24.7614C25.5328 24.2571 26.4993 23.5007 27.1548 22.4922C27.8104 21.4669 28.1381 20.1558 28.1381 18.5589C28.1381 16.9621 27.8104 15.6426 27.1548 14.6005C26.4993 13.5415 25.5328 12.7515 24.2553 12.2305C22.9779 11.6926 21.4063 11.4237 19.5405 11.4237H13.3885V53H0.908026ZM29.9787 29.4006L42.8374 53H29.2223L16.6158 29.4006H29.9787ZM42.5928 53V1.36363H78.5971V11.4993H55.0733V22.0888H76.7565V32.2496H55.0733V42.8643H78.5971V53H42.5928ZM112.327 1.36363H124.782V34.6701C124.782 38.5193 123.866 41.8726 122.034 44.7301C120.202 47.5708 117.647 49.7727 114.369 51.3359C111.092 52.8823 107.284 53.6555 102.948 53.6555C98.5608 53.6555 94.7284 52.8823 91.4507 51.3359C88.173 49.7727 85.6265 47.5708 83.8111 44.7301C81.9958 41.8726 81.0881 38.5193 81.0881 34.6701V1.36363H93.5686V33.5859C93.5686 35.3677 93.9552 36.9561 94.7284 38.3512C95.5184 39.7463 96.6194 40.8389 98.0313 41.6289C99.4432 42.4189 101.082 42.8139 102.948 42.8139C104.814 42.8139 106.444 42.4189 107.839 41.6289C109.251 40.8389 110.352 39.7463 111.142 38.3512C111.932 36.9561 112.327 35.3677 112.327 33.5859V1.36363ZM155.191 16.8445C155.022 14.9955 154.274 13.5584 152.947 12.533C151.636 11.4909 149.761 10.9698 147.324 10.9698C145.71 10.9698 144.366 11.1799 143.29 11.6001C142.214 12.0204 141.407 12.6003 140.87 13.3398C140.332 14.0626 140.054 14.8946 140.038 15.8359C140.004 16.6091 140.155 17.2899 140.491 17.8782C140.844 18.4665 141.349 18.9876 142.004 19.4414C142.676 19.8784 143.483 20.265 144.425 20.6012C145.366 20.9374 146.425 21.2315 147.601 21.4837L152.039 22.4922C154.594 23.0469 156.846 23.7865 158.796 24.7109C160.763 25.6354 162.41 26.7364 163.738 28.0138C165.083 29.2913 166.099 30.7621 166.789 32.4261C167.478 34.0902 167.831 35.956 167.848 38.0234C167.831 41.2843 167.007 44.083 165.377 46.4194C163.746 48.7558 161.401 50.5459 158.342 51.7898C155.3 53.0336 151.627 53.6555 147.324 53.6555C143.004 53.6555 139.239 53.0084 136.029 51.7141C132.818 50.4199 130.322 48.4532 128.54 45.8143C126.759 43.1753 125.843 39.8388 125.792 35.8047H137.743C137.844 37.4688 138.289 38.8555 139.079 39.9648C139.869 41.0742 140.954 41.9147 142.332 42.4862C143.727 43.0576 145.341 43.3434 147.173 43.3434C148.854 43.3434 150.282 43.1165 151.459 42.6626C152.652 42.2088 153.569 41.5785 154.207 40.7717C154.846 39.9648 155.174 39.0404 155.191 37.9982C155.174 37.0233 154.871 36.1913 154.283 35.5021C153.695 34.7962 152.787 34.191 151.56 33.6868C150.35 33.1657 148.803 32.6867 146.921 32.2496L141.525 30.989C137.054 29.9637 133.533 28.308 130.961 26.022C128.389 23.7192 127.112 20.6096 127.128 16.6932C127.112 13.4995 127.969 10.7009 129.7 8.29723C131.431 5.89358 133.827 4.01941 136.886 2.67472C139.945 1.33002 143.433 0.657669 147.349 0.657669C151.35 0.657669 154.821 1.33842 157.762 2.69993C160.721 4.04462 163.015 5.93561 164.645 8.37287C166.276 10.8101 167.108 13.634 167.142 16.8445H155.191ZM178.4 53H164.987L182.409 1.36363H199.025L216.447 53H203.034L190.906 14.3736H190.503L178.4 53ZM176.61 32.6783H204.647V42.1584H176.61V32.6783ZM216.681 53V1.36363H238.213C242.079 1.36363 245.315 1.90992 247.92 3.00248C250.543 4.09505 252.509 5.62464 253.82 7.59126C255.148 9.55788 255.812 11.8355 255.812 14.424C255.812 16.3906 255.4 18.1471 254.577 19.6935C253.753 21.2231 252.618 22.4922 251.173 23.5007C249.727 24.5092 248.055 25.2152 246.156 25.6186V26.1229C248.24 26.2237 250.164 26.7868 251.929 27.8121C253.711 28.8375 255.14 30.2662 256.216 32.0984C257.291 33.9137 257.829 36.0652 257.829 38.5529C257.829 41.3263 257.123 43.8056 255.711 45.9908C254.299 48.1591 252.257 49.8736 249.585 51.1342C246.912 52.3781 243.668 53 239.852 53H216.681ZM229.162 42.94H236.877C239.583 42.94 241.575 42.4273 242.853 41.402C244.147 40.3767 244.794 38.9479 244.794 37.1158C244.794 35.7879 244.483 34.6449 243.861 33.6868C243.239 32.7119 242.357 31.9639 241.214 31.4428C240.071 30.9049 238.701 30.636 237.104 30.636H229.162V42.94ZM229.162 22.593H236.07C237.432 22.593 238.642 22.3661 239.701 21.9123C240.76 21.4585 241.584 20.8029 242.172 19.9457C242.777 19.0884 243.08 18.0547 243.08 16.8445C243.08 15.1132 242.466 13.7517 241.239 12.7599C240.012 11.7682 238.356 11.2724 236.272 11.2724H229.162V22.593ZM258.505 53V1.36363H270.985V42.8643H292.467V53H258.505ZM293.603 53V1.36363H329.607V11.4993H306.083V22.0888H327.766V32.2496H306.083V42.8643H329.607V53H293.603ZM360.009 16.8445C359.841 14.9955 359.093 13.5584 357.765 12.533C356.454 11.4909 354.58 10.9698 352.142 10.9698C350.529 10.9698 349.184 11.1799 348.108 11.6001C347.033 12.0204 346.226 12.6003 345.688 13.3398C345.15 14.0626 344.873 14.8946 344.856 15.8359C344.822 16.6091 344.974 17.2899 345.31 17.8782C345.663 18.4665 346.167 18.9876 346.822 19.4414C347.495 19.8784 348.302 20.265 349.243 20.6012C350.184 20.9374 351.243 21.2315 352.42 21.4837L356.857 22.4922C359.412 23.0469 361.665 23.7865 363.614 24.7109C365.581 25.6354 367.228 26.7364 368.556 28.0138C369.901 29.2913 370.918 30.7621 371.607 32.4261C372.296 34.0902 372.649 35.956 372.666 38.0234C372.649 41.2843 371.825 44.083 370.195 46.4194C368.565 48.7558 366.22 50.5459 363.161 51.7898C360.118 53.0336 356.445 53.6555 352.142 53.6555C347.823 53.6555 344.057 53.0084 340.847 51.7141C337.637 50.4199 335.14 48.4532 333.359 45.8143C331.577 43.1753 330.661 39.8388 330.61 35.8047H342.561C342.662 37.4688 343.108 38.8555 343.898 39.9648C344.688 41.0742 345.772 41.9147 347.15 42.4862C348.545 43.0576 350.159 43.3434 351.991 43.3434C353.672 43.3434 355.101 43.1165 356.277 42.6626C357.471 42.2088 358.387 41.5785 359.026 40.7717C359.664 39.9648 359.992 39.0404 360.009 37.9982C359.992 37.0233 359.69 36.1913 359.101 35.5021C358.513 34.7962 357.605 34.191 356.378 33.6868C355.168 33.1657 353.622 32.6867 351.739 32.2496L346.343 30.989C341.872 29.9637 338.351 28.308 335.779 26.022C333.207 23.7192 331.93 20.6096 331.947 16.6932C331.93 13.4995 332.787 10.7009 334.519 8.29723C336.25 5.89358 338.645 4.01941 341.704 2.67472C344.763 1.33002 348.251 0.657669 352.168 0.657669C356.168 0.657669 359.639 1.33842 362.581 2.69993C365.539 4.04462 367.833 5.93561 369.464 8.37287C371.094 10.8101 371.926 13.634 371.96 16.8445H360.009Z" fill="#063C4F"/>
</svg>
