<svg xmlns="http://www.w3.org/2000/svg" xmlns:xlink="http://www.w3.org/1999/xlink" version="1.0" id="katman_1" x="0px" y="0px" style="enable-background:new 0 0 800 600;" xml:space="preserve" viewBox="110.5 262.4 578.5 75.1">
<style type="text/css">
	.st0{fill-rule:evenodd;clip-rule:evenodd;fill:#063C4F;}
	.st1{fill:#063C4F;}
</style>
<path class="st0" d="M386.9,262.4v75.1h-14.7v-48.9l-48.8,48.8L312,325.9l48.8-48.8h-48.9v-14.7H386.9z"/>
<path class="st1" d="M139.3,337.5c16.7,0,27.9-8.6,27.9-22.3c0-29-39.1-16.7-39.1-32c0-4.3,3.9-7.2,10.2-7.2  c7.1,0,11.6,3.8,12.1,9.5h15.2c-0.4-13.9-11.3-23.1-27.3-23.1c-15.1,0-25.7,8.6-25.7,20.8c0,28.8,38.6,17.8,38.6,32.2  c0,5.6-4.8,8.5-11.9,8.5c-7.9,0-12.9-4.7-13.5-12.2h-15.3C111.1,327.4,122.4,337.5,139.3,337.5z M191.6,336.7h15.5l14.8-48.9  l14.8,48.9h15.7l22-73.4h-16.2l-14.3,50.2l-15.3-50.2h-13.5l-15.2,50.2l-14.2-50.2h-16.2L191.6,336.7L191.6,336.7z M282.8,336.7h16  v-73.4h-16V336.7z M436.4,337.5c19,0,32.7-10.6,34.1-26.3h-15.9c-1.3,7.6-8.6,12.7-18.2,12.7c-12,0-21.3-8.2-21.3-23.9  c0-15.7,9.2-24,21.2-24c9.4,0,16.7,5.1,17.7,12.8h16.7c-2-15.8-15.7-26.3-34.4-26.3c-19.9,0-37.3,12.8-37.3,37.5  C399.1,324.7,416.2,337.5,436.4,337.5z M526.8,263.3v29.2h-30.6v-29.2h-15.9v73.4h15.9V306h30.6v30.7h16v-73.4L526.8,263.3  L526.8,263.3z M556.5,336.7h51.7v-13.6h-35.8V306h27.6v-13.6h-27.6v-15.5h34.6v-13.5h-50.6C556.5,263.3,556.5,336.7,556.5,336.7z   M651.1,337.5c21.8,0,37.9-15.9,37.9-37.5c0-21.6-16.2-37.5-37.9-37.5c-21.9,0-38,15.9-38,37.5C613,321.6,629.2,337.5,651.1,337.5z   M651,323.9c-12.8,0-21.9-10.2-21.9-23.9s9.1-24,21.9-24s22,10.3,22,24S663.7,323.9,651,323.9z"/>
</svg>